<?xml version="1.0" encoding="UTF-8"?>
<svg width="821px" height="600px" viewBox="0 0 821 600" version="1.1" xmlns="http://www.w3.org/2000/svg" xmlns:xlink="http://www.w3.org/1999/xlink">
    <!-- Generator: Sketch 59.1 (86144) - https://sketch.com -->
    <title>business-meeting</title>
    <desc>Created with Sketch.</desc>
    <defs>
        <polygon id="path-1" points="0 0.288866261 803.381002 0.288866261 803.381002 473.792463 0 473.792463"></polygon>
        <polygon id="path-3" points="0 526 803 526 803 0 0 0"></polygon>
    </defs>
    <g id="business-meeting" stroke="none" stroke-width="1" fill="none" fill-rule="evenodd">
        <g id="Group-160" transform="translate(17.000000, 56.000000)">
            <g id="Group-3">
                <mask id="mask-2" fill="white">
                    <use xlink:href="#path-1"></use>
                </mask>
                <g id="Clip-2"></g>
                <path d="M49.114314,473.792463 L778.513776,473.792463 C778.513776,473.792463 831.461787,405.721597 782.835637,354.938764 C734.209486,304.155211 714.759314,301.994116 735.290131,277.142974 C755.820948,252.291831 787.158217,146.403256 713.677948,66.4463717 C633.300282,-21.0145523 385.178389,-23.233996 324.665142,68.607466 C264.151895,160.449648 330.067647,211.232481 264.151895,201.508278 C198.236142,191.784074 134.480959,160.449648 90.1766688,209.072107 C61.4689699,240.577259 98.8218301,316.041229 71.8071419,338.731278 C44.7917333,361.421326 -61.1064495,420.847816 49.114314,473.792463" id="Fill-1" fill="#DEEBFF" mask="url(#mask-2)"></path>
            </g>
            <path d="M118.028287,264.323372 C118.028287,264.323372 121.454205,262.665728 130.51601,266.856562 C139.578538,271.048114 140,272.096182 140,272.096182 C140,272.096182 118.715784,277.753448 118.293598,276.915281 C117.872136,276.077115 118.028287,264.323372 118.028287,264.323372" id="Fill-4" fill="#FD6062"></path>
            <path d="M118.93082,265.548013 L123.52067,255.731306 C123.52067,255.731306 115.489334,243.027162 115.029844,236.097167 C114.570354,229.167897 119.39031,218.542388 131.324065,214.61527 C143.257819,210.688152 148.765207,214.61527 150.601724,219.004146 C152.43752,223.393022 151.97803,226.164294 151.97803,226.164294 C151.97803,226.164294 153.642148,237.020682 154.330301,238.061089 C155.019175,239.099318 158.978579,244.470518 157.77323,245.682995 C156.56788,246.895472 154.846776,247.242516 154.846776,247.76163 C154.846776,248.281471 155.708049,260.58194 150.199941,263.006894 C144.691832,265.432574 139.700199,264.566415 139.700199,264.566415 L134.020412,276 C134.020412,276 120.651923,267.800171 118.93082,265.548013" id="Fill-6" fill="#FD6062"></path>
            <path d="M151.948932,226.086097 C151.948932,226.086097 152.408061,223.33122 150.572989,218.968309 C148.738637,214.605398 143.234863,210.702234 131.310499,214.605398 C119.386855,218.509283 114.570692,229.07193 115.02982,235.960205 C115.488949,242.849202 123.513244,255.478188 123.513244,255.478188 C123.513244,255.478188 129.01774,256.855987 131.253558,255.133918 C133.489376,253.411128 134.520794,248.072426 134.176988,246.522131 C133.833182,244.973279 133.316392,240.839881 135.725195,239.634578 C138.132555,238.429274 140.540637,243.077993 140.540637,243.077993 L143.120261,241.873411 C143.120261,241.873411 140.024568,235.15691 142.261107,230.678521 C144.496205,226.201575 151.948932,226.086097 151.948932,226.086097" id="Fill-8" fill="#231B41"></path>
            <path d="M155,252 L147,252.48 C147,252.48 147.195862,254.497974 149.150379,255.171101 C150.827904,255.747665 153.648638,255.952775 154.419791,256 C154.745134,254.634714 154.916411,253.242643 155,252" id="Fill-10" fill="#FFFFFF"></path>
            <path d="M238.340901,487.000067 C238.340901,490.866389 236.845682,493.999146 234.999657,493.999146 C233.155004,493.999146 231.659099,490.866389 231.659099,487.000067 L231.659099,416.999933 C231.659099,413.133611 233.155004,410.000854 234.999657,410.000854 C236.845682,410.000854 238.340901,413.133611 238.340901,416.999933 L238.340901,487.000067 Z M234.999657,404 C231.133232,404 228,407.581526 228,411.999461 L228,491.999101 C228,496.418474 231.133232,500 234.999657,500 C238.866081,500 242,496.418474 242,491.999101 L242,411.999461 C242,407.581526 238.866081,404 234.999657,404 L234.999657,404 Z" id="Fill-12" fill="#8E8E8E"></path>
            <path d="M311.340901,487.000067 C311.340901,490.866389 309.844996,493.999146 308.000343,493.999146 C306.155691,493.999146 304.659099,490.866389 304.659099,487.000067 L304.659099,416.999933 C304.659099,413.133611 306.155691,410.000854 308.000343,410.000854 C309.844996,410.000854 311.340901,413.133611 311.340901,416.999933 L311.340901,487.000067 Z M308.000343,404 C304.133919,404 301,407.581526 301,411.999461 L301,491.999101 C301,496.418474 304.133919,500 308.000343,500 C311.866768,500 315,496.418474 315,491.999101 L315,411.999461 C315,407.581526 311.866768,404 308.000343,404 L308.000343,404 Z" id="Fill-14" fill="#8E8E8E"></path>
            <path d="M316.163071,409 L226.438949,409 C226.438949,409 218,408.552672 218,400.053443 L218,361.137369 C218,361.137369 222.441212,349.506122 253.534007,348.163415 C284.626802,346.822155 302.83728,353.532796 302.83728,375.898464 C302.83728,375.898464 320.827099,374.780145 320.827099,385.738953 C320.827099,396.698485 322.382493,409 316.163071,409" id="Fill-16" fill="#D68F54"></path>
            <path d="M286.845798,497.609936 C286.155206,493.706836 284.841961,486.953133 284.841961,486.953133 L285.145933,463 L271,463 L276.294307,485.92729 C276.403569,486.990593 276.692132,491.122779 275.207289,495.50278 C275.207289,495.50278 273.848518,501.868911 279.943379,501.986335 C286.039641,502.1052 287.533589,501.513756 286.845798,497.609936" id="Fill-18" fill="#FD6062"></path>
            <path d="M275.684552,496.166524 C275.684552,496.166524 274.528094,503.919061 275.221404,507.172515 C275.221404,507.172515 277.201786,514 281.665941,514 C285.898522,514 287.995397,507.172515 287.995397,507.172515 C287.995397,507.172515 288.126011,498.830175 286.995675,496 C286.995675,496 282.640953,502.790806 275.684552,496.166524" id="Fill-20" fill="#231B41"></path>
            <polygon id="Fill-22" fill="#FD6062" points="319 462.012022 321.160224 467 332 461.475428 329.745368 458"></polygon>
            <path d="M326.843905,478 L335.314174,474.225639 L335.031075,472.358862 C335.031075,472.358862 341.47708,472.974691 345.970481,471.718549 C350.463882,470.464633 359.252017,466.297774 358.994461,465.666364 C358.736904,465.032729 360.119053,464.914757 350.36171,463.781781 C340.605787,462.645837 333.883779,460 333.883779,460 L322,466.701401 L326.843905,478 Z" id="Fill-24" fill="#231B41"></path>
            <path d="M269.652893,411 L269,486.996717 L290.84869,488 C290.84869,488 299,420.374811 299,419.370083 L293.78319,411 L269.652893,411 Z" id="Fill-26" fill="#231B41"></path>
            <path d="M314.199421,383.144933 C322.587113,389.492203 335,457.317525 335,457.317525 L317.555077,464 L293.40029,410.540919 C293.40029,410.540919 250.122027,411.878135 244.419005,408.202413 C238.715982,404.527412 235.36105,392.499678 235.36105,392.499678 L231,370.113025 L272.823373,369 C272.823373,369 273.342356,375.097849 281.32181,377.129984 C291.251251,379.6588 309.549565,379.622757 314.199421,383.144933" id="Fill-28" fill="#231B41"></path>
            <path d="M220,370 C220,370 225.419415,401.140796 233.887617,402.78094 C242.354357,404.420376 256.580322,396.553488 258.950951,389.340111 C261.32231,382.128856 260.983231,370.32817 260.983231,370.32817 L220,370 Z" id="Fill-30" fill="#3E3F62"></path>
            <path d="M270,370 C270,370 273.129029,376.420738 286.343443,378.714841 C294.915355,380.202053 298,379.989496 298,379.989496 L297.315016,370.105935 L270,370 Z" id="Fill-32" fill="#3E3F62"></path>
            <path d="M261.515955,280 C261.515955,280 235.08856,286.996223 228.732878,296.991342 C222.377196,306.985741 210,332.638799 210,340.967705 C210,349.29733 216.690571,353.628907 223.71531,354.62806 C230.739327,355.627931 304,354.295248 304,354.295248 C304,354.295248 304,307.318552 299.650768,300.655859 C295.302257,293.992447 294.6332,283.664517 261.515955,280" id="Fill-34" fill="#3E3F62"></path>
            <path d="M223.567082,354 L256.549012,354 L257,350.471887 C257,350.471887 227.685809,349.148845 220.921726,344.29769 C214.156913,339.445822 230.392465,298.433653 229.941477,297 C223.515269,306.922817 211,332.39031 211,340.658967 C211,348.420958 216.961355,352.684808 223.567082,354" id="Fill-36" fill="#131026"></path>
            <path d="M262.145178,339.582733 C262.145178,339.582733 274.461934,338.101499 277.524099,339.862171 C280.584767,341.623544 286.94931,350.058523 282.428651,349.999694 C277.90874,349.940164 275.090531,347.585598 273.198006,347.986897 C271.30548,348.388896 269.548403,349.666329 262.267904,347.315264 C254.987406,344.962098 262.145178,339.582733 262.145178,339.582733" id="Fill-38" fill="#FD6062"></path>
            <path d="M257.704976,337.03521 L257,350.782484 L262.39975,351 C262.39975,351 263.337945,338.124907 262.868467,337.470241 C262.39975,336.816282 257.704976,337.03521 257.704976,337.03521" id="Fill-40" fill="#FFFFFF"></path>
            <path d="M261.615362,280.009621 C261.615362,280.009621 251.969092,291.498094 253.090751,306.364801 C254.212411,321.231508 264.531677,337 264.531677,337 C264.531677,337 279.785518,319.204859 281.355841,308.616714 C282.926164,298.029297 281.131509,283.613848 281.131509,283.613848 C281.131509,283.613848 266.101274,279.783628 261.615362,280.009621" id="Fill-42" fill="#E8E8E8"></path>
            <path d="M264.888853,338 C263.555476,336.456949 256.000392,327.19365 251.110624,317.931065 C246.222295,308.669193 244.888199,302.934498 244.888199,302.934498 L250.221706,299.627146 L244,295.657466 C244,295.657466 251.999542,283.969679 254.221837,282.206091 C256.444132,280.441075 263.111017,280 263.111017,280 C263.111017,280 254.666296,289.924199 254.889245,302.272885 C255.110755,314.622999 266,335.794623 266,335.794623 L264.888853,338 Z" id="Fill-44" fill="#231B41"></path>
            <path d="M264,338 C264,338 271.147432,333.100301 278.740856,323.749148 C287.514675,312.943003 289.239369,307.493449 289.239369,307.493449 L285.218216,304.376638 L290.802147,303.485194 C290.802147,303.485194 291.695576,299.700341 289.685361,293.687959 C287.725744,287.829796 284.772224,283.890003 284.772224,283.890003 L281.645223,283 C281.645223,283 283.878072,305.26592 280.080999,313.060469 C276.284649,320.854298 265.116786,335.773192 265.116786,335.773192 L264,338 Z" id="Fill-46" fill="#231B41"></path>
            <polygon id="Fill-48" fill="#FFFFFF" points="259 286.363636 261.553367 294 269 288.696283 262.830051 280"></polygon>
            <path d="M281.572097,284 L270,289.540882 L275.143154,297 L282,291.672945 C282,291.672945 282,286.770786 281.572097,284" id="Fill-50" fill="#FFFFFF"></path>
            <polygon id="Fill-52" fill="#231B41" points="263.489833 292.990627 265.074739 295.430061 261 327.796327 265.301887 336 271.187947 327.796327 269.829456 295.872746 273 293.434747 268.923796 289"></polygon>
            <polygon id="Fill-54" fill="#FD6062" points="263 278.793867 267.585671 267 281.344803 272.442928 282 282.422976 269.76966 289"></polygon>
            <path d="M264,277.027552 C265.183308,280.66928 269.244411,287.001089 283,282.367385 L282.344262,273.247145 L267.839046,268 L264,277.027552 Z" id="Fill-56" fill="#AB2A41"></path>
            <path d="M291.950912,256.512644 C292.717129,269.472141 284.37824,280.254856 276.392989,280.954613 C267.054306,281.77279 258.825292,271.423565 258.057619,258.462633 C257.291402,245.502419 264.256485,234.558939 273.61627,234.020665 C282.975327,233.481672 291.183967,243.552429 291.950912,256.512644" id="Fill-58" fill="#FD6062"></path>
            <path d="M269,269 C269,269 270.711344,275.127282 275.829838,274.997982 C279.990601,274.894542 282,269.77884 282,269.77884 C282,269.77884 272.788547,272.07505 269,269" id="Fill-60" fill="#FFFFFF"></path>
            <path d="M258.542861,256.142639 C258.542861,256.142639 252.556198,254.819821 254.327801,260.230959 C256.100163,265.641383 258.672064,268.728672 261,265.973872" id="Fill-62" fill="#FD6062"></path>
            <path d="M259.250501,258.168114 C259.679161,259.651013 259.956362,261 259.956362,261 L261.683151,260.688478 C261.683151,260.688478 261.577414,253.395914 262.521183,250.788859 C263.464951,248.180394 267.753702,243.400441 271.475192,243.249614 C275.195968,243.098787 283.8442,246.409937 287.990064,243.744384 C292.136643,241.08024 291.999472,235.53417 291.999472,235.53417 C291.999472,235.53417 290.81994,237.837456 287.697861,235.440431 C284.575067,233.046226 276.853457,228.000563 268.813209,230.846545 C260.773675,233.693232 254.710983,237.574565 254.156581,245.160327 C253.60218,252.748203 254.698123,256.727503 254.698123,256.727503 C254.698123,256.727503 258.249578,254.692041 259.250501,258.168114" id="Fill-64" fill="#231B41"></path>
            <polygon id="Fill-66" fill="#231B41" points="258 336 238 334.787066 240.334328 310 241.667614 332.473863"></polygon>
            <path d="M245.188291,401.958433 C244.300687,400.639804 235.868451,375.601505 240.30647,374.723604 C244.744489,373.843571 298,376.040811 298,374.723604 C298,373.404976 297.88869,370 297.88869,370 L222,370 C222,370 227.35363,402.603885 235.647268,402.947226 C243.634984,403.27635 245.188291,401.958433 245.188291,401.958433" id="Fill-68" fill="#131026"></path>
            <path d="M314,329 C314,326.791625 315.791443,325 317.999595,325 C320.209366,325 322,326.791625 322,329 C322,331.209185 320.209366,333 317.999595,333 C315.791443,333 314,331.209185 314,329" id="Fill-70" fill="#FFFFFF"></path>
            <path d="M345,311.13172 C344.570881,310.449618 343.840868,310 343.013229,310 L290.391848,310 C289.071705,310 288,311.14488 288,312.556606 L288,348.556713 C288,349.719869 288.730741,350.69002 289.72522,351 C294.942406,347.693301 331.805859,320.966281 345,311.13172" id="Fill-72" fill="#FFFFFF"></path>
            <path d="M714,234.97946 C714,242.72206 708.583571,249 701.903476,249 L383.097962,249 C376.416429,249 371,242.72206 371,234.97946 L371,103.02054 C371,95.2779402 376.416429,89 383.097962,89 L701.903476,89 C708.583571,89 714,95.2779402 714,103.02054 L714,234.97946 Z" id="Fill-74" fill="#FFFFFF"></path>
            <path d="M702,219.87093 C702,226.016823 697.026009,231 690.889837,231 L398.110163,231 C391.974711,231 387,226.016823 387,219.87093 L387,115.12907 C387,108.982456 391.974711,104 398.110163,104 L690.889837,104 C697.026009,104 702,108.982456 702,115.12907 L702,219.87093 Z" id="Fill-76" fill="#CECECE"></path>
            <mask id="mask-4" fill="white">
                <use xlink:href="#path-3"></use>
            </mask>
            <g id="Clip-79"></g>
            <polygon id="Fill-78" fill="#A1CDD3" mask="url(#mask-4)" points="426 218 431 218 431 174 426 174"></polygon>
            <polygon id="Fill-80" fill="#D3D4D6" mask="url(#mask-4)" points="440 218 445 218 445 185 440 185"></polygon>
            <polygon id="Fill-81" fill="#A1CDD3" mask="url(#mask-4)" points="456 218 461 218 461 163 456 163"></polygon>
            <polygon id="Fill-82" fill="#79BBDE" mask="url(#mask-4)" points="477 218 482 218 482 185 477 185"></polygon>
            <polygon id="Fill-83" fill="#A1CDD3" mask="url(#mask-4)" points="491 218 496 218 496 163 491 163"></polygon>
            <polygon id="Fill-84" fill="#79BBDE" mask="url(#mask-4)" points="506 218 511 218 511 183 506 183"></polygon>
            <polygon id="Fill-85" fill="#FFB4A9" mask="url(#mask-4)" points="528 218 533 218 533 147 528 147"></polygon>
            <polygon id="Fill-86" fill="#A1CDD3" mask="url(#mask-4)" points="542 218 547 218 547 174 542 174"></polygon>
            <polygon id="Fill-87" fill="#79BBDE" mask="url(#mask-4)" points="556 218 561 218 561 185 556 185"></polygon>
            <path d="M645.956524,160.960657 C639.181557,157.499559 633.754619,159.674535 633.754619,159.674535 C613.025601,157.277346 606.978338,181.083466 607.259117,189.275349 C607.537719,197.465803 608.48961,206.264307 599.233343,216.905538 C572.494789,247.64457 628.493826,249 628.493826,249 C628.968321,224.440784 658.861463,233.402197 657.551163,235.890843 C695.872021,244.947286 661.361628,168.831724 645.956524,160.960657" id="Fill-88" fill="#F99746" mask="url(#mask-4)"></path>
            <path d="M566,264.917312 C566,264.917312 562.344177,259.093779 559.395205,258.979577 C556.448417,258.865375 550.990162,257.267311 551.426211,258.409329 C551.862988,259.550586 555.247281,259.665549 555.574135,260.349238 C555.902446,261.034449 550.551929,262.062265 549.024666,262.176467 C547.495947,262.290669 543.892537,262.176467 544.00246,262.97588 C544.110926,263.775293 550.495876,267.086385 554.999774,266.630339 C559.5044,266.17277 565.071849,268 565.071849,268 L566,264.917312 Z" id="Fill-89" fill="#FD6062" mask="url(#mask-4)"></path>
            <path d="M618,265.405617 C618,265.405617 616.05284,269.337659 612.51871,273.855728 C608.262061,279.292097 601.695925,285.573331 593.452235,286.813001 C589.514408,287.404843 585.663596,286.541073 582.123759,284.937864 C582.114487,284.934956 582.111634,284.934956 582.111634,284.934956 C572.099809,280.404527 564.570792,269.985487 564.570792,269.985487 C562.806936,265.078431 565.694153,261.752045 565.694153,261.752045 C565.694153,261.752045 585.911092,266.387173 587.836141,265.405617 C589.761191,264.42406 600.991952,231.440853 603.665908,227.296503 C606.342718,223.152154 615.455141,221 615.455141,221 L618,265.405617 Z" id="Fill-90" fill="#F9DDBF" mask="url(#mask-4)"></path>
            <path d="M613.364141,274.891561 C609.111095,280.313799 602.551614,286.577144 594.316993,287.813426 C590.383157,288.403651 586.536249,287.542966 583,285.944139 C583.391887,285.996345 593.380026,287.252205 597.362314,280.00346 C601.422979,272.608247 605.814966,260.863931 611.848606,264.778703 C614.450738,266.468167 614.336022,270.667175 613.364141,274.891561" id="Fill-91" fill="#F2CCAA" mask="url(#mask-4)"></path>
            <path d="M694.780526,486.632202 C694.780526,486.632202 701.067839,492.188759 699.841348,496.136709 C698.614129,500.085364 692.940425,502.717566 692.17196,507.542682 C691.405675,512.367798 688.339811,515 685.578569,515 L672.417234,515 C672.417234,515 670.384472,511.604678 675.292618,510.581083 C680.200037,509.55608 682.051043,503.887589 681.744239,498.623186 C681.437434,493.358783 682.204446,486.340048 682.204446,486.340048 L692.633621,484 L694.780526,486.632202 Z" id="Fill-92" fill="#233862" mask="url(#mask-4)"></path>
            <path d="M641.144333,490 C641.144333,490 643.363007,513.675937 640.655098,515 L606,514.928486 C606,514.928486 606,510.958423 611.566296,510.076187 C617.132593,509.193242 626.911588,505.957432 628.56543,498.75085 C630.220699,491.544976 641.144333,490 641.144333,490" id="Fill-93" fill="#233862" mask="url(#mask-4)"></path>
            <path d="M666.84194,316.120836 C659.645562,300.023329 655.242818,295.403533 656.082635,290.406889 C656.70872,286.688656 654.177034,221.073335 654.177034,221.073335 C653.324263,220.8099 651.612245,220.573742 650.676715,220.366296 C647.724761,219.712375 645.280871,217.644378 644.264742,214.804021 C643.039919,211.382242 642.065529,206.330327 642.089277,200 L641.165982,200.180887 L625.667861,203.242328 C625.667861,203.242328 626.019764,208.107613 626.030558,212.690802 C626.031278,212.729563 626.031278,212.767607 626.031278,212.805651 C626.049989,216.785882 623.432666,220.29954 619.596996,221.402807 C617.639581,221.967003 615.936198,222.44865 615.936198,222.44865 C615.936198,222.44865 610.245302,238.656699 609.157929,255.306916 C608.070557,271.957133 619.507041,279.190459 609.071573,312.462899 C598.417335,346.445249 670.8165,325.015882 666.84194,316.120836" id="Fill-94" fill="#FD6062" mask="url(#mask-4)"></path>
            <path d="M626,202.935965 C626,202.935965 626.340592,207.603626 626.35104,212 C634.745357,211.765894 639.183507,204.196006 641,200 L626,202.935965 Z" id="Fill-95" fill="#AB2A41" mask="url(#mask-4)"></path>
            <path d="M621.933218,206.999131 C621.933218,206.999131 642.75149,207.341726 642.766092,194.42131 C642.780693,181.500894 645.476789,172.842914 632.184662,172.079167 C618.893995,171.313965 616.305947,176.241951 615.248826,180.553121 C614.191706,184.86429 616.518394,206.577252 621.933218,206.999131" id="Fill-96" fill="#FD6062" mask="url(#mask-4)"></path>
            <path d="M623,171.626243 C623,171.626243 628.702353,186.786227 637.45307,189.027597 C646.203057,191.268967 650,188.933752 650,188.933752 C650,188.933752 643.286881,183.622411 641.894157,174.350661 C641.894157,174.350661 627.301596,164.411083 623,171.626243" id="Fill-97" fill="#F99746" mask="url(#mask-4)"></path>
            <path d="M625,173.47431 C625,173.47431 620.990293,175.050855 619.339726,178.125301 C617.725869,181.132024 616.350974,185.113802 616.66959,190 C616.66959,190 612.59616,179.685826 617.174526,173.850788 C622.029257,167.664031 625,173.47431 625,173.47431" id="Fill-98" fill="#F99746" mask="url(#mask-4)"></path>
            <path d="M627,199.876179 C627,199.876179 625.472565,202.155321 622.41381,201.991582 C619.949403,201.859534 619,199.437781 619,199.437781 C619,199.437781 623.524813,198.205337 627,199.876179" id="Fill-99" fill="#EBF3FA" mask="url(#mask-4)"></path>
            <path d="M668.769628,250.261362 C668.769628,250.261362 669.287965,257.648702 668.769628,266.513654 C668.425737,272.390095 662.552435,280.261531 661.71952,282.208043 C659.628295,287.09169 657.26968,287.886215 657.26968,287.886215 L639.029198,292.411675 L632.615394,294 L612.388785,287.886215 C612.388785,287.886215 603.177387,261.860839 606.875816,247.211344 C610.57496,232.561125 616.225913,222.387161 616.225913,222.387161 C616.225913,222.387161 632.731216,238.743654 654.220425,221 L668.769628,250.261362 Z" id="Fill-100" fill="#F9DDBF" mask="url(#mask-4)"></path>
            <path d="M663,268.854878 C662.66026,274.642762 662.130831,280.032957 661.306253,281.950848 C659.236668,286.760187 656.901661,287.542738 656.901661,287.542738 L638.843755,292 L631,289.678004 C631,289.678004 657.182655,285.682576 654.281414,263 L663,268.854878 Z" id="Fill-101" fill="#F2CCAA" mask="url(#mask-4)"></path>
            <path d="M612.859586,291 C612.859586,291 602.669502,322.345112 602.01562,333.017272 C601.361011,343.69015 621.494609,484.62491 622.304142,489.542284 C623.067853,494.177884 628.891693,497.132908 628.891693,497.132908 C628.891693,497.132908 631.570499,498.694162 635.394144,497.62673 C640.697206,496.146702 642.374461,494.374838 642.374461,494.374838 C642.374461,494.374838 650.305415,393.861594 645.397301,357.955637 C640.489186,322.049681 640.430999,291 640.430999,291 L612.859586,291 Z" id="Fill-102" fill="#302E4B" mask="url(#mask-4)"></path>
            <path d="M655.5053,290 C655.5053,290 670.927131,310.701208 672.365328,324.694051 C673.802081,338.689061 674.620403,387.84378 677.682976,401.485756 C680.746992,415.127732 692,441.381461 692,483.931055 C692,483.931055 690.830247,486.370526 687.217797,487.670036 C686.063919,488.085158 684.516036,488.486562 683.012892,488.833099 C680.034749,489.515342 676.978671,488.059168 675.619131,485.32081 C668.010326,469.995967 643.775299,420.566185 642.532662,410.305825 C641.654446,403.045169 634.0009,354.988537 617.309732,326.789152 C613.302553,320.020144 619.769027,293.097889 619.769027,293.097889 L655.5053,290 Z" id="Fill-103" fill="#363656" mask="url(#mask-4)"></path>
            <path d="M627,200.277485 C627,200.277485 626.602495,202.275195 622.412602,201.967855 C622.412602,201.967855 618.894604,201.709193 619.002429,199.513907 C619.002429,199.513907 622.414211,197.950482 627,200.277485" id="Fill-104" fill="#FFFFFF" mask="url(#mask-4)"></path>
            <path d="M611.571139,287 C611.571139,287 615.611694,290.024061 623.638918,290.176284 C633.227331,290.359086 656.986421,287.864406 656.986421,287.864406 C656.986421,287.864406 658.041821,290.654017 657.998715,293.599929 C657.998715,293.599929 628.980582,300.52333 612.168889,294.61112 C612.168889,294.61112 609.999893,290.751875 611.571139,287" id="Fill-105" fill="#233862" mask="url(#mask-4)"></path>
            <path d="M620.5,289.464529 C618.841133,289.464529 617.491872,291.050196 617.491872,293.000725 C617.491872,294.949804 618.841133,296.535471 620.5,296.535471 C622.158128,296.535471 623.508128,294.949804 623.508128,293.000725 C623.508128,291.050196 622.158128,289.464529 620.5,289.464529 M620.5,298 C618.019458,298 616,295.75642 616,293.000725 C616,290.24358 618.019458,288 620.5,288 C622.981281,288 625,290.24358 625,293.000725 C625,295.75642 622.981281,298 620.5,298" id="Fill-106" fill="#FFFFFF" mask="url(#mask-4)"></path>
            <polygon id="Fill-107" fill="#B5453C" mask="url(#mask-4)" points="688 291.950871 657.889196 318 622 277.049852 652.110804 251"></polygon>
            <path d="M650.922355,292 C650.922355,292 639.965395,293.273959 640,295.859959 C640.034047,298.446677 642.730289,303.75879 644.083107,303.994469 C645.436648,304.230867 653,296.810578 653,296.810578 L650.922355,292 Z" id="Fill-108" fill="#FD6062" mask="url(#mask-4)"></path>
            <path d="M654.619399,222 C654.619399,222 669.206807,223.017953 674.799055,236.549052 C680.391303,250.080868 691,272.799368 691,276.622252 C691,280.4437 685.074091,292.225842 653.246559,299 C653.246559,299 649.953907,295.552303 650.153527,292.826284 C650.153527,292.826284 670.021142,275.83888 669.967814,273.85319 C669.866923,270.09774 666.711194,265.139972 649.267127,247.770208 C644.525246,243.048455 654.619399,222 654.619399,222" id="Fill-109" fill="#F9DDBF" mask="url(#mask-4)"></path>
            <path d="M356.817915,487.5105 C356.817915,491.819742 355.108486,495.312818 352.999644,495.312818 C350.891514,495.312818 349.181373,491.819742 349.181373,487.5105 L349.181373,409.488045 C349.181373,405.17953 350.891514,401.687909 352.999644,401.687909 C355.108486,401.687909 356.817915,405.17953 356.817915,409.488045 L356.817915,487.5105 Z M352.999644,395 C348.581898,395 345,398.992087 345,403.915272 L345,493.084 C345,498.007913 348.581898,502 352.999644,502 C357.41739,502 361,498.007913 361,493.084 L361,403.915272 C361,398.992087 357.41739,395 352.999644,395 L352.999644,395 Z" id="Fill-110" fill="#8E8E8E" mask="url(#mask-4)"></path>
            <path d="M435.818101,487.5105 C435.818101,491.819742 434.108748,495.312818 432,495.312818 C429.891252,495.312818 428.181899,491.819742 428.181899,487.5105 L428.181899,409.488045 C428.181899,405.17953 429.891252,401.687909 432,401.687909 C434.108748,401.687909 435.818101,405.17953 435.818101,409.488045 L435.818101,487.5105 Z M432,395 C427.581739,395 424,398.992087 424,403.915272 L424,493.084 C424,498.007913 427.581739,502 432,502 C436.418973,502 440,498.007913 440,493.084 L440,403.915272 C440,398.992087 436.418973,395 432,395 L432,395 Z" id="Fill-111" fill="#8E8E8E" mask="url(#mask-4)"></path>
            <path d="M445.927618,411 L351.84827,411 C351.84827,411 343,410.538207 343,401.759848 L343,361.567401 C343,361.567401 347.656188,349.555061 380.258869,348.168966 C412.861551,346.782872 431.955452,353.713344 431.955452,376.813009 C431.955452,376.813009 450.818741,375.658526 450.818741,386.977463 C450.818741,398.296399 452.449595,411 445.927618,411" id="Fill-112" fill="#D68F54" mask="url(#mask-4)"></path>
            <path d="M441.689449,382.797164 C435.456601,393.766809 427.616422,398 427.616422,398 L395,398 C395,398 446.445467,374.429008 441.689449,382.797164" id="Fill-113" fill="#233862" mask="url(#mask-4)"></path>
            <path d="M416.776846,466.784335 C415.926349,467.74907 415.818223,468.827938 416.239117,469.97715 C416.239117,469.982175 416.242746,469.988635 416.247825,469.994378 C417.02648,472.121964 419.599015,474.498631 422.586639,476.871708 C422.968346,477.177495 423.307965,477.454569 423.603316,477.710827 C423.68169,477.778301 423.759337,477.845775 423.831905,477.913249 C423.892863,477.964932 423.950917,478.020203 424.008246,478.071167 C426.794856,480.611494 425.745523,481.194355 430.751989,486.349662 C436.459461,492.224213 440.390468,492.32973 441.50729,491.794245 C442.454302,491.337718 440.53125,488.222426 438.402831,484.719517 C438.299785,484.551549 438.19819,484.381429 438.09224,484.209154 C437.808499,483.744732 437.526936,483.272413 437.245372,482.802966 C434.750485,478.588708 435.39126,476.611861 435.983415,470.338926 C436.463089,465.241045 444,441.861997 444,441.861997 L433.060376,440 C433.060376,440 429.766515,458.614947 426.136665,461.481878 C424.195471,463.010094 422.023511,463.029474 420.158514,464.162895 C420.027166,464.241136 419.897269,464.322967 419.76955,464.406233 C418.710057,465.100354 417.630245,465.817446 416.776846,466.784335" id="Fill-114" fill="#FD6062" mask="url(#mask-4)"></path>
            <path d="M415.784228,466.636779 C414.925649,467.60716 414.816495,468.692341 415.24139,469.848278 C415.24139,469.853333 415.245052,469.859831 415.25018,469.865607 C416.212053,472.004199 418.743103,474.382499 421.659488,476.760799 C422.040428,477.074151 422.375947,477.361511 422.675571,477.627211 C422.754689,477.69508 422.833075,477.762949 422.906332,477.830817 C422.967869,477.882802 423.026475,477.938397 423.084348,477.98966 C425.89744,480.544852 424.838135,481.131124 429.892177,486.316597 C435.653888,492.225525 439.622252,492.33166 440.749687,491.793041 C441.705698,491.333843 439.764372,488.200321 437.615727,484.676913 C436.494885,484.272588 431.282607,482.18598 427.343545,477.218553 C423.874798,472.854005 421.56059,467.2476 419.198033,464 C419.065436,464.078699 418.934305,464.161008 418.805372,464.244761 C417.735811,464.942945 416.645738,465.664232 415.784228,466.636779" id="Fill-115" fill="#233862" mask="url(#mask-4)"></path>
            <path d="M504.626825,459.483621 C505.293729,462.847098 510.038626,462.285434 515.342377,460.976331 C520.643982,459.667228 519.383876,461.22355 526.929485,460.37997 C534.476525,459.53639 536.762748,456.694096 536.991728,455.559925 C537.199242,454.555147 533.469728,454.199499 529.469733,453.734698 C528.968123,453.67687 528.462936,453.61398 527.957033,453.551091 C523.441116,452.979308 520.133785,450.035813 516.03218,447.618562 C512.147389,445.328535 506.348469,436 506.348469,436 L496,436.827677 C496,436.827677 501.431837,445.160831 503.532014,448.783093 C504.767075,450.914091 504.701243,453.731084 504.548828,455.908345 C504.466539,457.089501 504.390689,458.29885 504.626825,459.483621" id="Fill-116" fill="#FD6062" mask="url(#mask-4)"></path>
            <path d="M514.695882,461.885435 C519.910792,460.459304 518.671292,462.154605 526.093513,461.23612 C533.517141,460.317635 535.766683,457.222175 535.991918,455.988084 C536.195334,454.8933 532.526808,454.506859 528.592221,454 L528.555621,454.084214 C528.555621,454.084214 524.103696,457.614125 517.925199,457.779405 C512.889773,457.916351 507.554502,456.302116 504.078833,456.366654 C503.998593,457.653477 503.92328,458.970209 504.155554,460.260181 C504.811553,463.922315 509.479563,463.310779 514.695882,461.885435" id="Fill-117" fill="#233862" mask="url(#mask-4)"></path>
            <path d="M463,393.661024 L453.463138,419.8065 L441.011609,453.943227 C441.011609,453.943227 437.632795,454.276674 434.397174,453.327354 C431.417611,452.451335 428,450.156006 428,450.156006 C428,450.156006 431.457112,413.501173 437.906486,392.460181 C439.559212,387.0589 441.41227,382.69102 443.456488,380.231842 C453.453968,368.193942 463,393.661024 463,393.661024" id="Fill-118" fill="#233862" mask="url(#mask-4)"></path>
            <path d="M453.710194,352.234978 C447.363451,350.176862 429.259789,352.819924 411.075154,356.398036 L407.266534,350.084653 L367.988668,347 C367.988668,347 355.027897,375.897195 362.123466,394.307864 C363.166089,397.01432 365.238436,398.749708 368.771173,398.807338 C368.772606,398.808779 369.343003,398.805897 369.344436,398.807338 C369.344436,398.807338 392.722122,398.795092 400.313564,398.795092 C419.847519,398.795092 441.655179,385.29523 444.475636,384.727573 C449.093273,383.798287 450.940615,393.083224 455.557536,402.830642 C460.174457,412.579501 498.959317,446 498.959317,446 C498.959317,446 504.921974,446.059013 507.384857,445.130447 C510.032618,444.132005 511,442.835327 511,442.835327 C511,442.835327 468.023868,356.877086 453.710194,352.234978" id="Fill-119" fill="#2B478B" mask="url(#mask-4)"></path>
            <path d="M397.058913,231.907269 C391.582478,230.258292 383.945053,231.347104 382.681649,231.417303 C367.582851,232.25182 362.820013,255.171307 363.542267,261.704177 C364.869166,273.746291 363.136044,273.358044 362.159089,285.067068 C360.448334,305.59475 372.857978,315.115406 383.851253,319.69128 C390.446064,322.436948 372.19994,321.969905 372.19994,321.969905 C372.365893,322.045119 384.751727,301.856974 397.125294,291.66584 C417.298632,284.796297 411.016245,236.106357 397.058913,231.907269" id="Fill-120" fill="#233862" mask="url(#mask-4)"></path>
            <path d="M395.211114,288.766026 C395.272254,288.807564 388.303008,291.261298 383.641978,289.132454 C379.257876,287.134159 375.936893,279.695813 376.00091,279.692104 C377.996234,279.597901 380.185047,277.798397 381.871074,266 L382.721281,266.313763 L397,271.61288 C397,271.61288 395.965654,276.338618 395.29671,280.837378 C394.733502,284.613666 394.430679,288.23196 395.211114,288.766026" id="Fill-121" fill="#FD6062" mask="url(#mask-4)"></path>
            <path d="M397,271.74345 C397,271.74345 395.985896,275.972981 395.330042,280 C387.28914,278.636856 384.131876,271.093416 383,267 L397,271.74345 Z" id="Fill-122" fill="#AB2A41" mask="url(#mask-4)"></path>
            <path d="M399.179446,273.974617 C399.179446,273.974617 379.147588,275.073668 378.642454,262.807881 C378.138784,250.540656 375.212668,242.421486 387.980112,241.200877 C400.749753,239.979549 403.42916,244.561328 404.60927,248.615878 C405.791576,252.670428 404.377201,273.372584 399.179446,273.974617" id="Fill-123" fill="#FD6062" mask="url(#mask-4)"></path>
            <path d="M402,242.823557 C402,242.823557 391.852177,255.439333 383.744454,257.83175 C375.637442,260.224869 372,258.199977 372,258.199977 C372,258.199977 376.098707,253.293101 377.780757,246.305222 C378.276901,244.244559 379.850042,242.598413 381.917902,242.023279 C387.722862,240.407292 398.871515,238.066076 402,242.823557" id="Fill-124" fill="#233862" mask="url(#mask-4)"></path>
            <path d="M395,243.172476 C395,243.172476 399.740557,246.308931 401.548017,248.96536 C403.295975,251.528332 404.92843,258.153827 404.462914,261 C404.462914,261 408.373944,247.538733 403.718789,242.269772 C398.782226,236.680794 395,243.172476 395,243.172476" id="Fill-125" fill="#233862" mask="url(#mask-4)"></path>
            <path d="M411.996308,317.062791 C411.411334,356.634378 411.835084,348.364657 407.546223,352.120939 C406.511817,353.024922 403.60478,353.563282 399.780332,353.818067 C387.753402,354.623447 366.61086,352.624751 365.806877,350.382066 C363.032529,342.622635 364.99148,340.212252 362.677264,328.333075 C362.435427,327.069226 362.13652,325.702455 361.786248,324.213329 C359.856547,316.054447 357.978922,313.27844 364.825262,300.17068 C371.033837,288.297981 377.483536,278.661489 378.06423,279.009119 C394.444225,288.819067 395.765411,280.573097 395.765411,280.573097 C395.765411,280.573097 412.283089,297.760298 411.996308,317.062791" id="Fill-126" fill="#808096" mask="url(#mask-4)"></path>
            <path d="M454,419.550786 L441.286296,453.942751 C441.286296,453.942751 437.836339,454.278692 434.532591,453.322998 C431.48957,452.439705 428,450.127214 428,450.127214 C428,450.127214 431.530624,413.199039 438.115072,392 L454,419.550786 Z" id="Fill-127" fill="#2B478B" mask="url(#mask-4)"></path>
            <path d="M396,281 C396,281 412.616399,283.888908 414.566512,291.226951 C416.517329,298.564272 428,341.701691 428,341.701691 C428,341.701691 419.552557,343.259032 415.650924,339.257119 C411.748588,335.253042 402.07327,302.12257 402.07327,302.12257 L396,281 Z" id="Fill-128" fill="#808096" mask="url(#mask-4)"></path>
            <path d="M399,353.8187 C387.00648,354.621278 365.922669,352.629536 365.120919,350.394653 C362.354278,342.6615 364.307787,340.26022 362,328.422371 L367.784407,312 C367.784407,312 366.827572,330.287164 372.177312,335.096895 C377.521361,339.908061 394.079946,344.383565 396.679408,348.401476 C397.935032,350.33082 398.759546,352.265901 399,353.8187" id="Fill-129" fill="#737384" mask="url(#mask-4)"></path>
            <path d="M385,346.014531 C385,346.014531 396.861121,343.11674 398.774389,344.272099 C400.688371,345.428241 405.365644,349.63403 405.951106,351.098581 C406.53728,352.563914 401.690287,349.987056 400.113606,349.522878 C399.093862,349.223079 396.406158,350.247717 395.076213,350.734596 C389.478317,352.783088 386.047555,351.728706 386.047555,351.728706 L385,346.014531 Z" id="Fill-130" fill="#FD6062" mask="url(#mask-4)"></path>
            <path d="M376.994444,280 C376.994444,280 360.830583,280.988201 355.2354,288.73785 C347.359734,299.646866 331.73433,346.139009 340.689083,352.339879 C350.774308,359.322684 386.585358,354.167511 386.585358,354.167511 C386.585358,354.167511 387.777347,348.634306 386.119274,345.959337 C384.461925,343.28293 357.515884,338.961439 356.27251,337.726008 C355.028412,336.491297 371.817579,313.644098 371.817579,309.939245 C371.817579,306.233672 376.994444,280 376.994444,280" id="Fill-131" fill="#808096" mask="url(#mask-4)"></path>
            <path d="M400,349 C400,349 402.677474,352.299172 403.555624,352.693311 C404.433774,353.087451 405,352.989099 405,352.989099 L403.195298,349.88663 L400,349 Z" id="Fill-132" fill="#FD6062" mask="url(#mask-4)"></path>
            <path d="M399,344 L407,347.531687 C407,347.531687 406.659692,348.038573 405.674299,347.997649 C404.689696,347.956725 402.204895,347.130343 402.204895,347.130343 L399,344 Z" id="Fill-133" fill="#FD6062" mask="url(#mask-4)"></path>
            <polygon id="Fill-134" fill="#F99746" mask="url(#mask-4)" points="407 354 464.65634 354 482 311 424.43286 311"></polygon>
            <polygon id="Fill-135" fill="#ED7D2B" mask="url(#mask-4)" points="465 353 389 353 389 355 464.326442 355"></polygon>
            <path d="M449.883061,333 C450.339378,331.343553 449.419944,330 447.826612,330 C446.234035,330 444.573464,331.343553 444.117147,333 C443.660075,334.656447 444.581019,336 446.174352,336 C447.765417,336 449.425988,334.656447 449.883061,333" id="Fill-136" fill="#FFFFFF" mask="url(#mask-4)"></path>
            <path d="M193.994418,485.410919 C193.994418,485.410919 188.940014,502.572101 191.964652,503.47226 C192.367032,503.592233 207.545967,506.896207 207.545967,506.896207 L226.948817,511 C226.948817,511 227.820759,506.22436 222.366834,503.985598 C216.914339,501.749016 206.724055,494.45904 204.894406,486.096581 C202.970416,477.297858 193.994418,485.410919 193.994418,485.410919" id="Fill-137" fill="#163560" mask="url(#mask-4)"></path>
            <path d="M97.7663178,365.481423 C97.7663178,365.481423 94.7929677,382.618476 96.5617776,388.959798 L165.313058,403.73677 C165.313058,403.73677 181.466085,409.00572 182.734437,410.447552 C184.333321,412.266766 172.83283,424.441671 193.099935,486.039276 L208.824203,489 C208.824203,489 211.380983,396.717024 208.953978,393.846324 C205.32315,389.551078 156.953693,366.921094 148.301079,364.795077 C139.647749,362.668339 97.7663178,365.481423 97.7663178,365.481423" id="Fill-138" fill="#1C468A" mask="url(#mask-4)"></path>
            <path d="M145.047807,342.875417 C144.599267,345.832186 145.50774,348.211674 145.944177,350.410224 C146.114337,351.250297 146.214725,352.065239 146.142816,352.875873 C145.423015,361.055454 148.314322,362.093698 147.410121,364.732389 C147.410121,364.732389 144.320175,366.553982 138.665716,368.715913 C136.206574,369.653636 133.257598,370.659569 129.865065,371.604471 C129.687785,371.652578 129.509793,371.702121 129.327528,371.750946 C116.193833,375.330948 102.38448,376.096348 98.4821766,375.9908 C91.0292834,375.789757 89.5263165,356.73949 92.2908928,332.745718 C96.5975942,295.365349 102.42079,277.242753 117.768709,264.146951 C118.735563,263.321956 118.083399,266.127943 123.241616,268.637391 C128.007538,270.950823 133.758824,271.492203 138.217887,270.494168 L141.727183,274.123713 C148.698785,285.227035 149.429978,298.407562 148.836195,309.393848 C148.085068,323.283052 146.344303,334.366269 145.047807,342.875417" id="Fill-139" fill="#B0D4FF" mask="url(#mask-4)"></path>
            <path d="M148.819848,363.975383 C148.819848,363.975383 145.674153,365.815042 139.917676,368 C115,349.805073 115.136265,306.736299 115,306 L146.295319,333.580381 L147.327455,349.505476 C147.499961,350.354214 147.60216,351.176838 147.528954,351.995835 C146.796891,360.260519 149.740363,361.308747 148.819848,363.975383" id="Fill-140" fill="#91B8EF" mask="url(#mask-4)"></path>
            <path d="M187.241539,347.994709 C187.241539,347.994709 189.232025,348.53979 191.472149,347.744631 C193.713011,346.949472 201.411323,344.504096 202.750832,345.089609 C204.089605,345.673624 208.346726,348.746441 209.361483,349.349923 C210.374768,349.954154 212,352.681055 212,352.681055 C211.136941,353.40134 208.577955,351.274178 207.348169,351.180585 C206.11912,351.086993 196.547409,355.167611 193.843353,354.994652 C191.140034,354.820197 187,353.817638 187,353.817638 L187.241539,347.994709 Z" id="Fill-141" fill="#FD6062" mask="url(#mask-4)"></path>
            <path d="M203,350 C203.008767,350.133831 206.158608,353.683945 209,352.882265 L206.331562,350.225881 L203,350 Z" id="Fill-142" fill="#FD6062" mask="url(#mask-4)"></path>
            <path d="M191,347 C191,347 194.311111,344.99919 195.452796,344 C195.452796,344 196.025524,344.27212 195.999114,344.683944 C195.951575,345.372748 194.959298,346.562057 194.959298,346.562057 L191,347 Z" id="Fill-143" fill="#FD6062" mask="url(#mask-4)"></path>
            <path d="M140.996402,278.902307 C126.286559,267.671008 106.03521,282.527871 112.104411,300.058239 C119.142715,320.385328 131.747485,345.596649 143.551442,348.232903 C151.964605,350.111233 175.978273,355.772014 186.4851,354.91165 C186.4851,354.91165 191.453273,355.676736 189.576392,347.317378 C189.576392,347.317378 157.230854,334.536564 152.441669,326.728096 C149.875932,322.54591 145.630843,314.175089 141.336551,279.166648 C141.318723,279.02409 141.110498,278.990421 140.996402,278.902307" id="Fill-144" fill="#B0D4FF" mask="url(#mask-4)"></path>
            <polygon id="Fill-145" fill="#2B478B" mask="url(#mask-4)" points="603 355 534.581119 355 514 304 582.313011 304"></polygon>
            <polygon id="Fill-146" fill="#2B478B" mask="url(#mask-4)" points="535 353 625 353 625 355 535.798498 355"></polygon>
            <path d="M552.136379,328.499613 C551.603927,326.567164 552.677754,325 554.535386,325 C556.393018,325 558.330221,326.567164 558.863416,328.499613 C559.396612,330.432836 558.321297,332 556.463665,332 C554.606777,332 552.668831,330.432836 552.136379,328.499613" id="Fill-147" fill="#FFFFFF" mask="url(#mask-4)"></path>
            <polygon id="Fill-148" fill="#543639" mask="url(#mask-4)" points="174 369 641 369 641 354 174 354"></polygon>
            <polygon id="Fill-149" fill="#2D1C1F" mask="url(#mask-4)" points="597 526 607 526 607 370 597 370"></polygon>
            <polygon id="Fill-150" fill="#2D1C1F" mask="url(#mask-4)" points="208 526 218 526 218 370 208 370"></polygon>
            <path d="M99.754205,391 L69.1761044,483.8559 C69.1761044,483.8559 66.8940289,495 78.759966,495 L150.870985,495 C150.870985,495 160,494.536569 160,481.535844 C160,468.535119 157.717212,391.464881 157.717212,391.464881 L152.696788,391.464881 L152.696788,479.215063 C152.696788,479.215063 155.092932,489.42795 138.091077,489.42795 C121.661702,489.42795 84.3065287,489.834086 82.4115719,489.42795 C78.0748443,488.499637 73.7388295,488.499637 78.3036935,476.428675 C82.8678445,464.355537 106.143446,391.464881 106.143446,391.464881 L99.754205,391 Z" id="Fill-151" fill="#8E8E8E" mask="url(#mask-4)"></path>
            <path d="M107.754446,408 L77.1761058,500.85735 C77.1761058,500.85735 74.8940124,512 86.7600424,512 L158.871627,512 C158.871627,512 168,511.537294 168,498.535844 C168,485.536569 165.717907,408.464881 165.717907,408.464881 L160.698157,408.464881 L160.698157,496.215063 C160.698157,496.215063 163.092893,506.4294 146.093044,506.4294 C129.662115,506.4294 92.3066486,506.834086 90.411677,506.4294 C86.0749154,505.501088 81.7395796,505.501088 86.3037664,493.430126 C90.8672402,481.356987 114.14445,408.464881 114.14445,408.464881 L107.754446,408 Z" id="Fill-152" fill="#8E8E8E" mask="url(#mask-4)"></path>
            <path d="M183.975713,409 L90.7661675,409 C90.7661675,409 82,408.538856 82,399.76053 L82,359.566709 C82,359.566709 86.6137345,347.553883 118.91348,346.169009 C151.213945,344.782691 170.132347,351.713556 170.132347,374.813313 C170.132347,374.813313 188.820819,373.657206 188.820819,384.977235 C188.820819,396.296541 190.434653,409 183.975713,409" id="Fill-153" fill="#D68F54" mask="url(#mask-4)"></path>
            <polygon id="Fill-154" fill="#9293A6" mask="url(#mask-4)" points="266 354 323.655787 354 341 311 283.432693 311"></polygon>
            <polygon id="Fill-155" fill="#838491" mask="url(#mask-4)" points="325 353 249 353 249 355 324.326442 355"></polygon>
            <path d="M309.883375,332.999607 C310.338965,331.343377 309.419474,330 307.827553,330 C306.234122,330 304.574203,331.343377 304.117102,332.999607 C303.660001,334.655836 304.581759,336 306.173679,336 C307.765599,336 309.426274,334.655836 309.883375,332.999607" id="Fill-156" fill="#FFFFFF" mask="url(#mask-4)"></path>
            <polygon id="Fill-157" fill="#9293A6" mask="url(#mask-4)" points="242 354.374926 244.066949 355 261 302.626501 258.933051 302"></polygon>
            <polygon id="Fill-158" fill="#9293A6" mask="url(#mask-4)" points="186.035913 351 244 351.591703 243.963368 355 186 354.409003"></polygon>
            <path d="M394,265.983466 C394,265.983466 395.707871,270.422496 399.312059,269.967231 C402.240636,269.599487 403,265 403,265 C403,265 400.338038,267.203393 394,265.983466" id="Fill-159" fill="#FFFFFF" mask="url(#mask-4)"></path>
        </g>
    </g>
</svg>